# Company Name : Prototech Solutions And Services Pvt Ltd http://www.prototechsolutions.com/
# Description  : OBJ Exporter for SolidWorks
# Version : 5.2.22102.3391
# ModelUnit : MilliMeters
# ExportUnit : Default
mtllib box.mtl
o box
v 0.0005 0.001 -0.0005
v 0.0005 0.001 0.0005
v 0.0005 0 -0.0005
v 0.0005 0 0.0005
v -0.0005 0.001 -0.0005
v 0.0005 0.001 -0.0005
v -0.0005 0 -0.0005
v 0.0005 0 -0.0005
v -0.0005 0.001 0.0005
v -0.0005 0.001 -0.0005
v -0.0005 0 0.0005
v -0.0005 0 -0.0005
v 0.0005 0.001 0.0005
v -0.0005 0.001 0.0005
v 0.0005 0 0.0005
v -0.0005 0 0.0005
v -0.0005 0.001 -0.0005
v -0.0005 0.001 0.0005
v 0.0005 0.001 -0.0005
v 0.0005 0.001 0.0005
v -0.0005 0 0.0005
v -0.0005 0 -0.0005
v 0.0005 0 0.0005
v 0.0005 0 -0.0005
vn 1 0 0
vn 0 0 -1
vn -1 0 0
vn 0 0 1
vn 0 1 0
vn 0 -1 0
usemtl R0.792156875133514,G0.819607853889465,B0.933333337306976
f 1//1 2//1 3//1
f 3//1 2//1 4//1
usemtl R0.792156875133514,G0.819607853889465,B0.933333337306976
f 5//2 6//2 7//2
f 7//2 6//2 8//2
usemtl R0.792156875133514,G0.819607853889465,B0.933333337306976
f 9//3 10//3 11//3
f 11//3 10//3 12//3
usemtl R0.792156875133514,G0.819607853889465,B0.933333337306976
f 13//4 14//4 15//4
f 15//4 14//4 16//4
usemtl R0.792156875133514,G0.819607853889465,B0.933333337306976
f 17//5 18//5 19//5
f 19//5 18//5 20//5
usemtl R0.792156875133514,G0.819607853889465,B0.933333337306976
f 21//6 22//6 23//6
f 23//6 22//6 24//6
